<?xml version="1.0" encoding="utf-8"?>
<!-- Generator: Adobe Illustrator 27.7.0, SVG Export Plug-In . SVG Version: 6.00 Build 0)  -->
<svg version="1.1" id="Layer_1" xmlns="http://www.w3.org/2000/svg" xmlns:xlink="http://www.w3.org/1999/xlink" x="0px" y="0px"
	 viewBox="0 0 53.5 53.5" style="enable-background:new 0 0 53.5 53.5;" xml:space="preserve">
<style type="text/css">
	.st0{fill:#0C44FF;}
</style>
<path class="st0" d="M5.6,45.1v-9.3c0-3.4,0.5-6.7,1.6-10s2.5-6.3,4.5-9.2s4.3-5.4,7-7.5l6.6,4.3c-2.9,3.4-5,6.9-6.5,10.4
	c-1.4,3.5-2.1,7.4-2.1,11.8v9.5H5.6z M28.9,45.1v-9.3c0-3.4,0.5-6.7,1.6-10s2.5-6.3,4.5-9.2s4.3-5.4,7-7.5l6.6,4.3
	c-2.9,3.4-5,6.9-6.5,10.4c-1.4,3.5-2.1,7.4-2.1,11.8v9.5H28.9z"/>
</svg>
